<svg width="24" height="24" viewBox="0 0 24 24" fill="none" xmlns="http://www.w3.org/2000/svg">
<circle cx="12" cy="12" r="12" fill="#092153"/>
<path d="M9.55638 9.7817C10.0477 9.7817 10.4461 9.38285 10.4461 8.89085C10.4461 8.39885 10.0477 8 9.55638 8C9.065 8 8.66666 8.39885 8.66666 8.89085C8.66666 9.38285 9.065 9.7817 9.55638 9.7817Z" fill="white"/>
<path d="M11.2609 10.4401H12.7355V11.1164C12.7355 11.1164 13.1356 10.3151 14.2243 10.3151C15.1955 10.3151 16 10.7942 16 12.2543V15.3333H14.472V12.6274C14.472 11.7661 14.0127 11.6713 13.6627 11.6713C12.9364 11.6713 12.8121 12.2986 12.8121 12.7398V15.3333H11.2609V10.4401Z" fill="white"/>
<path d="M8.78079 10.4401H10.332V15.3333H8.78079V10.4401Z" fill="white"/>
</svg>
