<svg width="23" height="24" viewBox="0 0 23 24" fill="none" xmlns="http://www.w3.org/2000/svg">
<ellipse cx="11.5" cy="12" rx="11.5" ry="12" fill="#092153"/>
<g clip-path="url(#clip0)">
<path d="M10.5164 14.6457C13.1678 14.6457 14.6183 12.3531 14.6183 10.3655C14.6183 10.301 14.617 10.2351 14.6142 10.1707C14.8964 9.95775 15.1399 9.69399 15.3333 9.39181C15.0705 9.51382 14.7915 9.5935 14.5058 9.62814C14.8066 9.43997 15.0319 9.14436 15.1398 8.79612C14.8568 8.97114 14.5473 9.0946 14.2245 9.16121C14.0071 8.92011 13.7196 8.76047 13.4065 8.70698C13.0933 8.65349 12.7721 8.70912 12.4923 8.86527C12.2125 9.02143 11.9898 9.2694 11.8586 9.57087C11.7275 9.87233 11.6951 10.2105 11.7666 10.5331C11.1935 10.503 10.6329 10.3477 10.1211 10.0771C9.60922 9.80651 9.15759 9.42668 8.79544 8.96226C8.61138 9.2934 8.55506 9.68525 8.63792 10.0582C8.72078 10.4311 8.93661 10.7571 9.24154 10.9699C9.01262 10.9623 8.78871 10.898 8.58832 10.7823V10.8009C8.58811 11.1484 8.70324 11.4853 8.91414 11.7542C9.12503 12.0231 9.41868 12.2076 9.74515 12.2762C9.53309 12.3367 9.31052 12.3455 9.09467 12.3019C9.1868 12.6008 9.36604 12.8622 9.60739 13.0496C9.84873 13.2371 10.1401 13.3412 10.4409 13.3475C9.93027 13.7661 9.29945 13.9931 8.65008 13.992C8.53492 13.9919 8.41988 13.9845 8.30556 13.97C8.96525 14.4116 9.73264 14.6462 10.5164 14.6457Z" fill="white"/>
</g>
<defs>
<clipPath id="clip0">
<rect width="7.02778" height="7.33333" fill="white" transform="translate(8.30556 8)"/>
</clipPath>
</defs>
</svg>
